<svg width="30" height="31" viewBox="0 0 30 31" fill="none" xmlns="http://www.w3.org/2000/svg">
<path d="M15.0021 22.7292C19.0505 22.7292 22.3323 19.4475 22.3323 15.399C22.3323 11.3506 19.0505 8.06885 15.0021 8.06885C10.9536 8.06885 7.67188 11.3506 7.67188 15.399C7.67188 19.4475 10.9536 22.7292 15.0021 22.7292Z" stroke="#080808" stroke-width="1.19751"/>
<path d="M7.67188 14.2405C8.77702 13.7188 9.59434 13.6461 10.1238 14.0224C10.9181 14.5868 11.0174 16.8881 12.8243 15.7886C14.6312 14.6891 12.0506 14.2405 12.6106 12.6476C13.1706 11.0544 15.005 12.2921 15.1872 10.5471C15.3091 9.38385 13.9176 8.93866 11.0126 9.21159" stroke="#080808" stroke-width="1.19751"/>
<path d="M19.4025 9.53491C17.3082 11.3633 16.5768 12.4674 17.2082 12.8471C18.1553 13.417 18.5569 12.6147 19.7129 12.8471C20.8689 13.0794 20.6182 14.6463 20.0105 14.6463C19.4028 14.6463 16.2542 14.2453 16.4129 16.0826C16.5716 17.9199 18.4653 18.1919 18.4653 19.2185C18.4653 19.9026 18.0463 20.95 17.2082 22.3605M8.44531 18.6705C8.69514 18.5606 8.94634 18.4538 9.19886 18.3502C10.6087 17.7809 11.655 17.6466 12.3376 17.9474C13.5442 18.4799 13.0802 19.5553 13.4584 19.9515C13.8359 20.3477 14.7801 20.2326 14.7801 20.9861C14.7801 21.4887 14.6112 22.0563 14.2735 22.6889" stroke="#080808" stroke-width="1.19751" stroke-linecap="round"/>
<mask id="path-4-inside-1_4085_31574" fill="white">
<path d="M26.6817 22.4265C26.9584 22.5949 27.0471 22.9566 26.8673 23.226C25.3132 25.5547 23.0979 27.372 20.5003 28.4398C17.7216 29.5819 14.6507 29.8067 11.7353 29.0811C8.81984 28.3556 6.21241 26.7178 4.29311 24.4065C2.3738 22.0952 1.24299 19.2312 1.06553 16.2321C0.888066 13.233 1.67324 10.2556 3.30658 7.7341C4.93992 5.21256 7.336 3.27867 10.1455 2.2144C12.955 1.15014 16.031 1.01113 18.9251 1.81766C21.6305 2.57161 24.0446 4.11499 25.8625 6.24413C26.0728 6.49049 26.0273 6.86008 25.7725 7.06V7.06C25.5176 7.25992 25.1498 7.21436 24.9386 6.9688C23.2756 5.03595 21.0747 3.63452 18.6101 2.94769C15.9569 2.20827 13.1368 2.3357 10.5611 3.31142C7.98533 4.28714 5.7886 6.06012 4.29116 8.37187C2.79372 10.6836 2.07387 13.4132 2.23657 16.1628C2.39926 18.9123 3.43599 21.538 5.19561 23.6571C6.95522 25.7761 9.34571 27.2776 12.0185 27.9428C14.6914 28.6079 17.5068 28.4019 20.0543 27.3547C22.4207 26.3821 24.441 24.7309 25.8644 22.6154C26.0452 22.3466 26.405 22.258 26.6817 22.4265V22.4265Z"/>
</mask>
<path d="M26.6817 22.4265C26.9584 22.5949 27.0471 22.9566 26.8673 23.226C25.3132 25.5547 23.0979 27.372 20.5003 28.4398C17.7216 29.5819 14.6507 29.8067 11.7353 29.0811C8.81984 28.3556 6.21241 26.7178 4.29311 24.4065C2.3738 22.0952 1.24299 19.2312 1.06553 16.2321C0.888066 13.233 1.67324 10.2556 3.30658 7.7341C4.93992 5.21256 7.336 3.27867 10.1455 2.2144C12.955 1.15014 16.031 1.01113 18.9251 1.81766C21.6305 2.57161 24.0446 4.11499 25.8625 6.24413C26.0728 6.49049 26.0273 6.86008 25.7725 7.06V7.06C25.5176 7.25992 25.1498 7.21436 24.9386 6.9688C23.2756 5.03595 21.0747 3.63452 18.6101 2.94769C15.9569 2.20827 13.1368 2.3357 10.5611 3.31142C7.98533 4.28714 5.7886 6.06012 4.29116 8.37187C2.79372 10.6836 2.07387 13.4132 2.23657 16.1628C2.39926 18.9123 3.43599 21.538 5.19561 23.6571C6.95522 25.7761 9.34571 27.2776 12.0185 27.9428C14.6914 28.6079 17.5068 28.4019 20.0543 27.3547C22.4207 26.3821 24.441 24.7309 25.8644 22.6154C26.0452 22.3466 26.405 22.258 26.6817 22.4265V22.4265Z" stroke="#080808" stroke-width="2.39502" stroke-linecap="round" stroke-linejoin="round" stroke-dasharray="5.01 5.01" mask="url(#path-4-inside-1_4085_31574)"/>
<path d="M21.6123 7.42418L26.3212 7.65113L26.5481 2.94224" stroke="#080808" stroke-width="1.19751" stroke-linecap="round" stroke-linejoin="round"/>
</svg>
