<svg width="75" height="76" viewBox="0 0 75 76" fill="none" xmlns="http://www.w3.org/2000/svg">
<path d="M5.50781 16.5276C5.50781 13.4169 7.56057 10.6795 10.5467 9.80795L35.4945 2.52682C36.7758 2.15286 38.1374 2.15304 39.4186 2.52735L64.3365 9.80701C67.3217 10.6791 69.3735 13.4162 69.3735 16.5261V30.3992C69.3723 40.1983 66.2882 49.7486 60.5581 57.6976C55.2835 65.0147 48.0129 70.6336 39.6395 73.8976C38.2289 74.4474 36.663 74.4476 35.2523 73.8981C26.8755 70.6351 19.6017 65.0155 14.325 57.6965C8.59273 49.7455 5.50795 40.1922 5.50781 30.3904V16.5276Z" stroke="#6A6A6A" stroke-width="3" stroke-linejoin="round"/>
<path d="M21.4727 35.6609L33.891 48.0792L55.1796 26.7906" stroke="#6A6A6A" stroke-width="3" stroke-linecap="round" stroke-linejoin="round"/>
</svg>
